<?xml version="1.0" encoding="iso-8859-1"?>
<!-- Uploaded to: SVG Repo, www.svgrepo.com, Generator: SVG Repo Mixer Tools -->
<svg xmlns="http://www.w3.org/2000/svg" xmlns:xlink="http://www.w3.org/1999/xlink" version="1.1" id="Layer_1"  viewBox="0 0 394.871 394.871" xml:space="preserve" width="512" height="512">
<g>
	<path style="fill:#E6E6E6;" d="M4.621,346.006l51.82-5.3l-7.52,49.6c-12.42,7.42-28.75,5.78-39.44-4.91   c-10.71-10.71-12.34-27.04-4.92-39.45L4.621,346.006z"/>
	<path style="fill:#E6E6E6;" d="M177.701,239.966l-0.37,0.46l-41.51,41.52l-34.38,14.76l11.5-37.64l41.51-41.52l0.46-0.37   c3.28,4.19,24.535-9.465,28.395-5.605S173.511,236.686,177.701,239.966z"/>
	<path style="fill:#4288BC;" d="M355.541,39.336c52.44,52.44,52.44,137.47,0,189.92c-48.59,48.58-125.14,52.16-177.84,10.71   c-4.19-3.28-8.22-6.85-12.08-10.71c-3.86-3.86-7.43-7.89-10.71-12.08c-41.45-52.7-37.87-129.26,10.71-177.84   C218.061-13.104,303.091-13.104,355.541,39.336z"/>
	<path style="fill:#4288BC;" d="M140.304,286.43c3.836,3.836,3.836,10.056,0,13.892l-85.074,85.074c-1.94,1.94-4.06,3.58-6.31,4.91   l-44.3-44.3l-0.06-0.06c1.35-2.25,2.99-4.37,4.92-6.3l85.074-85.074c3.836-3.836,10.056-3.836,13.893,0l4.494,4.494l22.88,22.88   L140.304,286.43z"/>
	<path style="fill:#3679A3;" d="M119.441,266.706c0,0-96.08,95.6-98.33,96.93l-16.49-17.63l-0.06-0.06c1.35-2.25,2.99-4.37,4.92-6.3   l84.857-84.857c3.92-3.92,10.305-3.822,14.103,0.217L119.441,266.706z"/>
	<path style="fill:#E6E6E6;" d="M334.991,208.706c-21.678,21.678-50.469,31.912-78.854,30.714   c-25.444-1.063-50.549-11.297-69.965-30.714c-41.095-41.095-41.095-107.724,0-148.819c19.417-19.417,44.521-29.651,69.965-30.714   c28.384-1.21,57.175,9.035,78.854,30.714C376.074,100.982,376.074,167.611,334.991,208.706z"/>
	<path style="fill:#F2F2F2;" d="M334.991,208.706c-21.678,21.678-50.469,31.912-78.854,30.714   c-43.696-63.044-43.696-147.202,0-210.246c28.384-1.21,57.175,9.035,78.854,30.714   C376.074,100.982,376.074,167.611,334.991,208.706z"/>
</g>















</svg>