<svg xmlns="http://www.w3.org/2000/svg" xmlns:xlink="http://www.w3.org/1999/xlink" width="120" zoomAndPan="magnify" viewBox="0 0 90 30.000001" height="40" preserveAspectRatio="xMidYMid meet" version="1.0"><defs><g/></defs><g fill="#ffffff" fill-opacity="1"><g transform="translate(12.983315, 25.403228)"><g><path d="M 0.71875 -12.953125 L 3.453125 -14 L 3.453125 -2.5 C 3.453125 -2.007812 3.472656 -1.617188 3.515625 -1.328125 C 3.566406 -1.046875 3.628906 -0.820312 3.703125 -0.65625 C 3.785156 -0.488281 3.863281 -0.378906 3.9375 -0.328125 C 4.019531 -0.285156 4.082031 -0.265625 4.125 -0.265625 L 4.125 0 L 0.75 0 L 0.75 -0.265625 C 0.8125 -0.265625 0.878906 -0.285156 0.953125 -0.328125 C 1.035156 -0.378906 1.109375 -0.488281 1.171875 -0.65625 C 1.242188 -0.820312 1.304688 -1.046875 1.359375 -1.328125 C 1.421875 -1.617188 1.453125 -2.007812 1.453125 -2.5 L 1.453125 -11.46875 C 1.367188 -11.988281 1.257812 -12.328125 1.125 -12.484375 C 0.988281 -12.640625 0.882812 -12.71875 0.8125 -12.71875 Z M 2.234375 -16.34375 C 1.847656 -16.34375 1.523438 -16.472656 1.265625 -16.734375 C 1.003906 -16.992188 0.875 -17.316406 0.875 -17.703125 C 0.875 -18.097656 1.003906 -18.425781 1.265625 -18.6875 C 1.523438 -18.945312 1.847656 -19.078125 2.234375 -19.078125 C 2.617188 -19.078125 2.941406 -18.945312 3.203125 -18.6875 C 3.460938 -18.425781 3.59375 -18.097656 3.59375 -17.703125 C 3.59375 -17.316406 3.460938 -16.992188 3.203125 -16.734375 C 2.941406 -16.472656 2.617188 -16.34375 2.234375 -16.34375 Z M 2.234375 -16.34375 "/></g></g></g><g fill="#ffffff" fill-opacity="1"><g transform="translate(17.338149, 25.403228)"><g><path d="M 17.421875 -17.90625 L 17.15625 -17.90625 C 16.726562 -18.375 16.3125 -18.753906 15.90625 -19.046875 C 15.5 -19.335938 15.035156 -19.554688 14.515625 -19.703125 C 13.992188 -19.859375 13.382812 -19.96875 12.6875 -20.03125 C 11.988281 -20.09375 11.144531 -20.125 10.15625 -20.125 L 10.15625 -2.5 C 10.15625 -2.03125 10.179688 -1.644531 10.234375 -1.34375 C 10.285156 -1.050781 10.347656 -0.828125 10.421875 -0.671875 C 10.492188 -0.515625 10.566406 -0.40625 10.640625 -0.34375 C 10.722656 -0.289062 10.785156 -0.265625 10.828125 -0.265625 L 10.828125 0 L 7.4375 0 L 7.4375 -0.265625 C 7.46875 -0.265625 7.519531 -0.289062 7.59375 -0.34375 C 7.675781 -0.40625 7.75 -0.515625 7.8125 -0.671875 C 7.882812 -0.828125 7.945312 -1.050781 8 -1.34375 C 8.0625 -1.644531 8.09375 -2.03125 8.09375 -2.5 L 8.09375 -20.125 C 7.113281 -20.125 6.273438 -20.09375 5.578125 -20.03125 C 4.878906 -19.96875 4.269531 -19.859375 3.75 -19.703125 C 3.238281 -19.554688 2.78125 -19.335938 2.375 -19.046875 C 1.96875 -18.753906 1.550781 -18.375 1.125 -17.90625 L 0.875 -17.90625 L 0.875 -20.375 L 17.421875 -20.375 Z M 17.421875 -17.90625 "/></g></g></g><g fill="#ffffff" fill-opacity="1"><g transform="translate(35.134909, 25.403228)"><g><path d="M 0.71875 -12.953125 L 3.453125 -14 L 3.453125 -2.5 C 3.453125 -2.007812 3.472656 -1.617188 3.515625 -1.328125 C 3.566406 -1.046875 3.628906 -0.820312 3.703125 -0.65625 C 3.785156 -0.488281 3.863281 -0.378906 3.9375 -0.328125 C 4.019531 -0.285156 4.082031 -0.265625 4.125 -0.265625 L 4.125 0 L 0.75 0 L 0.75 -0.265625 C 0.8125 -0.265625 0.878906 -0.285156 0.953125 -0.328125 C 1.035156 -0.378906 1.109375 -0.488281 1.171875 -0.65625 C 1.242188 -0.820312 1.304688 -1.046875 1.359375 -1.328125 C 1.421875 -1.617188 1.453125 -2.007812 1.453125 -2.5 L 1.453125 -11.46875 C 1.367188 -11.988281 1.257812 -12.328125 1.125 -12.484375 C 0.988281 -12.640625 0.882812 -12.71875 0.8125 -12.71875 Z M 2.234375 -16.34375 C 1.847656 -16.34375 1.523438 -16.472656 1.265625 -16.734375 C 1.003906 -16.992188 0.875 -17.316406 0.875 -17.703125 C 0.875 -18.097656 1.003906 -18.425781 1.265625 -18.6875 C 1.523438 -18.945312 1.847656 -19.078125 2.234375 -19.078125 C 2.617188 -19.078125 2.941406 -18.945312 3.203125 -18.6875 C 3.460938 -18.425781 3.59375 -18.097656 3.59375 -17.703125 C 3.59375 -17.316406 3.460938 -16.992188 3.203125 -16.734375 C 2.941406 -16.472656 2.617188 -16.34375 2.234375 -16.34375 Z M 2.234375 -16.34375 "/></g></g></g><g fill="#ffffff" fill-opacity="1"><g transform="translate(39.489742, 25.403228)"><g><path d="M 21.34375 -8.59375 L 21.34375 -2.5 C 21.34375 -2.007812 21.363281 -1.617188 21.40625 -1.328125 C 21.457031 -1.046875 21.519531 -0.820312 21.59375 -0.65625 C 21.675781 -0.488281 21.753906 -0.378906 21.828125 -0.328125 C 21.910156 -0.285156 21.96875 -0.265625 22 -0.265625 L 22 0 L 18.640625 0 L 18.640625 -0.265625 C 18.679688 -0.265625 18.738281 -0.285156 18.8125 -0.328125 C 18.882812 -0.378906 18.953125 -0.488281 19.015625 -0.65625 C 19.085938 -0.820312 19.15625 -1.046875 19.21875 -1.328125 C 19.28125 -1.617188 19.3125 -2.007812 19.3125 -2.5 L 19.3125 -8.59375 C 19.3125 -8.9375 19.289062 -9.351562 19.25 -9.84375 C 19.207031 -10.34375 19.125 -10.828125 19 -11.296875 C 18.875 -11.773438 18.691406 -12.207031 18.453125 -12.59375 C 18.210938 -12.988281 17.890625 -13.253906 17.484375 -13.390625 C 17.066406 -13.523438 16.664062 -13.519531 16.28125 -13.375 C 15.894531 -13.226562 15.539062 -13.007812 15.21875 -12.71875 C 14.90625 -12.425781 14.625 -12.09375 14.375 -11.71875 C 14.125 -11.351562 13.921875 -11.007812 13.765625 -10.6875 C 13.335938 -9.757812 13 -8.617188 12.75 -7.265625 C 12.5 -5.921875 12.375 -4.332031 12.375 -2.5 C 12.375 -2.007812 12.394531 -1.617188 12.4375 -1.328125 C 12.488281 -1.046875 12.550781 -0.820312 12.625 -0.65625 C 12.707031 -0.488281 12.785156 -0.378906 12.859375 -0.328125 C 12.941406 -0.285156 13 -0.265625 13.03125 -0.265625 L 13.03125 0 L 9.671875 0 L 9.671875 -0.265625 C 9.703125 -0.265625 9.753906 -0.285156 9.828125 -0.328125 C 9.910156 -0.378906 9.984375 -0.488281 10.046875 -0.65625 C 10.117188 -0.820312 10.179688 -1.046875 10.234375 -1.328125 C 10.296875 -1.617188 10.328125 -2.007812 10.328125 -2.5 L 10.328125 -8.59375 C 10.328125 -8.9375 10.304688 -9.351562 10.265625 -9.84375 C 10.234375 -10.34375 10.15625 -10.828125 10.03125 -11.296875 C 9.90625 -11.773438 9.71875 -12.207031 9.46875 -12.59375 C 9.226562 -12.988281 8.90625 -13.253906 8.5 -13.390625 C 8.09375 -13.523438 7.695312 -13.519531 7.3125 -13.375 C 6.925781 -13.226562 6.570312 -13.007812 6.25 -12.71875 C 5.9375 -12.425781 5.648438 -12.09375 5.390625 -11.71875 C 5.140625 -11.351562 4.941406 -11.007812 4.796875 -10.6875 C 4.367188 -9.757812 4.023438 -8.617188 3.765625 -7.265625 C 3.515625 -5.921875 3.390625 -4.332031 3.390625 -2.5 C 3.390625 -2.007812 3.414062 -1.617188 3.46875 -1.328125 C 3.519531 -1.046875 3.582031 -0.820312 3.65625 -0.65625 C 3.738281 -0.488281 3.816406 -0.378906 3.890625 -0.328125 C 3.960938 -0.285156 4.019531 -0.265625 4.0625 -0.265625 L 4.0625 0 L 0.71875 0 L 0.71875 -0.265625 C 0.757812 -0.265625 0.816406 -0.285156 0.890625 -0.328125 C 0.972656 -0.378906 1.046875 -0.488281 1.109375 -0.65625 C 1.179688 -0.820312 1.242188 -1.046875 1.296875 -1.328125 C 1.359375 -1.617188 1.390625 -2.007812 1.390625 -2.5 L 1.390625 -11.5 C 1.390625 -11.957031 1.359375 -12.335938 1.296875 -12.640625 C 1.242188 -12.941406 1.179688 -13.171875 1.109375 -13.328125 C 1.046875 -13.484375 0.972656 -13.585938 0.890625 -13.640625 C 0.816406 -13.703125 0.757812 -13.734375 0.71875 -13.734375 L 0.71875 -14 L 3.390625 -14 L 3.390625 -6.46875 C 3.523438 -7.363281 3.691406 -8.164062 3.890625 -8.875 C 4.085938 -9.59375 4.3125 -10.234375 4.5625 -10.796875 C 4.75 -11.203125 4.96875 -11.597656 5.21875 -11.984375 C 5.476562 -12.378906 5.773438 -12.734375 6.109375 -13.046875 C 6.453125 -13.367188 6.820312 -13.625 7.21875 -13.8125 C 7.613281 -14.007812 8.050781 -14.109375 8.53125 -14.109375 C 9.320312 -14.109375 9.96875 -13.941406 10.46875 -13.609375 C 10.976562 -13.285156 11.375 -12.859375 11.65625 -12.328125 C 11.9375 -11.804688 12.125 -11.21875 12.21875 -10.5625 C 12.320312 -9.90625 12.375 -9.25 12.375 -8.59375 L 12.375 -6.46875 C 12.488281 -7.363281 12.640625 -8.164062 12.828125 -8.875 C 13.023438 -9.59375 13.257812 -10.234375 13.53125 -10.796875 C 13.707031 -11.203125 13.925781 -11.597656 14.1875 -11.984375 C 14.445312 -12.378906 14.738281 -12.734375 15.0625 -13.046875 C 15.394531 -13.367188 15.765625 -13.625 16.171875 -13.8125 C 16.578125 -14.007812 17.019531 -14.109375 17.5 -14.109375 C 18.300781 -14.109375 18.945312 -13.941406 19.4375 -13.609375 C 19.925781 -13.285156 20.3125 -12.859375 20.59375 -12.328125 C 20.875 -11.804688 21.066406 -11.21875 21.171875 -10.5625 C 21.285156 -9.90625 21.34375 -9.25 21.34375 -8.59375 Z M 21.34375 -8.59375 "/></g></g></g><g fill="#ffffff" fill-opacity="1"><g transform="translate(61.728435, 25.403228)"><g><path d="M 0.984375 -5.140625 C 0.734375 -6.085938 0.675781 -7.023438 0.8125 -7.953125 C 0.945312 -8.878906 1.238281 -9.734375 1.6875 -10.515625 C 2.144531 -11.304688 2.742188 -11.988281 3.484375 -12.5625 C 4.222656 -13.144531 5.066406 -13.5625 6.015625 -13.8125 C 7.015625 -14.082031 7.976562 -14.144531 8.90625 -14 C 9.84375 -13.863281 10.6875 -13.582031 11.4375 -13.15625 C 12.195312 -12.726562 12.847656 -12.179688 13.390625 -11.515625 C 13.929688 -10.859375 14.316406 -10.144531 14.546875 -9.375 C 13.847656 -9.375 13.097656 -9.34375 12.296875 -9.28125 C 11.492188 -9.226562 10.765625 -9.125 10.109375 -8.96875 C 10.648438 -8.988281 11.144531 -8.894531 11.59375 -8.6875 C 12.050781 -8.488281 12.441406 -8.210938 12.765625 -7.859375 C 13.097656 -7.515625 13.359375 -7.109375 13.546875 -6.640625 C 13.742188 -6.179688 13.863281 -5.703125 13.90625 -5.203125 C 13.976562 -4.148438 13.757812 -3.238281 13.25 -2.46875 C 12.738281 -1.707031 12.0625 -1.109375 11.21875 -0.671875 C 10.375 -0.242188 9.429688 0 8.390625 0.0625 C 7.347656 0.132812 6.335938 0 5.359375 -0.34375 C 4.378906 -0.695312 3.492188 -1.265625 2.703125 -2.046875 C 1.910156 -2.828125 1.335938 -3.859375 0.984375 -5.140625 Z M 2.703125 -7.234375 C 2.753906 -6.671875 2.84375 -6.144531 2.96875 -5.65625 C 3.332031 -4.269531 3.890625 -3.175781 4.640625 -2.375 C 5.398438 -1.582031 6.21875 -1.039062 7.09375 -0.75 C 7.976562 -0.457031 8.863281 -0.394531 9.75 -0.5625 C 10.644531 -0.726562 11.421875 -1.0625 12.078125 -1.5625 C 12.734375 -2.070312 13.210938 -2.71875 13.515625 -3.5 C 13.816406 -4.28125 13.820312 -5.15625 13.53125 -6.125 C 13.375 -6.644531 13.117188 -7.117188 12.765625 -7.546875 C 12.421875 -7.972656 11.992188 -8.285156 11.484375 -8.484375 C 10.984375 -8.691406 10.414062 -8.769531 9.78125 -8.71875 C 9.144531 -8.675781 8.46875 -8.441406 7.75 -8.015625 C 7.050781 -7.609375 6.367188 -7.320312 5.703125 -7.15625 C 5.035156 -6.988281 4.421875 -6.925781 3.859375 -6.96875 C 3.648438 -6.988281 3.445312 -7.007812 3.25 -7.03125 C 3.0625 -7.0625 2.878906 -7.128906 2.703125 -7.234375 Z M 12.3125 -9.515625 C 12.039062 -10.140625 11.691406 -10.738281 11.265625 -11.3125 C 10.835938 -11.882812 10.359375 -12.375 9.828125 -12.78125 C 9.296875 -13.1875 8.707031 -13.472656 8.0625 -13.640625 C 7.425781 -13.816406 6.757812 -13.804688 6.0625 -13.609375 C 5.40625 -13.441406 4.851562 -13.144531 4.40625 -12.71875 C 3.96875 -12.289062 3.617188 -11.796875 3.359375 -11.234375 C 3.097656 -10.671875 2.910156 -10.0625 2.796875 -9.40625 C 2.691406 -8.75 2.660156 -8.101562 2.703125 -7.46875 C 3.023438 -7.3125 3.410156 -7.210938 3.859375 -7.171875 C 4.398438 -7.128906 4.992188 -7.191406 5.640625 -7.359375 C 6.296875 -7.523438 6.960938 -7.800781 7.640625 -8.1875 C 8.453125 -8.65625 9.265625 -8.984375 10.078125 -9.171875 C 10.890625 -9.367188 11.632812 -9.484375 12.3125 -9.515625 Z M 12.3125 -9.515625 "/></g></g></g></svg>