<svg xmlns="http://www.w3.org/2000/svg" xmlns:xlink="http://www.w3.org/1999/xlink" width="100" zoomAndPan="magnify" viewBox="0 0 75 30.000001" height="40" preserveAspectRatio="xMidYMid meet" version="1.0"><defs><g/><clipPath id="d9331349b8"><path d="M 1.210938 4 L 6 4 L 6 26 L 1.210938 26 Z M 1.210938 4 " clip-rule="nonzero"/></clipPath></defs><g clip-path="url(#d9331349b8)"><g fill="#ffffff" fill-opacity="1"><g transform="translate(1.049132, 25.733586)"><g><path d="M 0.828125 -14.71875 L 3.921875 -15.890625 L 3.921875 -2.84375 C 3.921875 -2.289062 3.945312 -1.847656 4 -1.515625 C 4.0625 -1.179688 4.132812 -0.921875 4.21875 -0.734375 C 4.3125 -0.554688 4.398438 -0.4375 4.484375 -0.375 C 4.578125 -0.320312 4.644531 -0.296875 4.6875 -0.296875 L 4.6875 0 L 0.859375 0 L 0.859375 -0.296875 C 0.921875 -0.296875 0.992188 -0.320312 1.078125 -0.375 C 1.171875 -0.4375 1.253906 -0.554688 1.328125 -0.734375 C 1.410156 -0.921875 1.484375 -1.179688 1.546875 -1.515625 C 1.617188 -1.847656 1.65625 -2.289062 1.65625 -2.84375 L 1.65625 -13.03125 C 1.5625 -13.625 1.4375 -14.007812 1.28125 -14.1875 C 1.132812 -14.363281 1.015625 -14.453125 0.921875 -14.453125 Z M 2.546875 -18.5625 C 2.097656 -18.5625 1.722656 -18.707031 1.421875 -19 C 1.128906 -19.300781 0.984375 -19.675781 0.984375 -20.125 C 0.984375 -20.5625 1.128906 -20.925781 1.421875 -21.21875 C 1.722656 -21.519531 2.097656 -21.671875 2.546875 -21.671875 C 2.984375 -21.671875 3.347656 -21.519531 3.640625 -21.21875 C 3.941406 -20.925781 4.09375 -20.5625 4.09375 -20.125 C 4.09375 -19.675781 3.941406 -19.300781 3.640625 -19 C 3.347656 -18.707031 2.984375 -18.5625 2.546875 -18.5625 Z M 2.546875 -18.5625 "/></g></g></g></g><g fill="#ffffff" fill-opacity="1"><g transform="translate(5.995831, 25.733586)"><g><path d="M 19.796875 -20.34375 L 19.5 -20.34375 C 19.007812 -20.875 18.53125 -21.300781 18.0625 -21.625 C 17.601562 -21.957031 17.078125 -22.210938 16.484375 -22.390625 C 15.890625 -22.566406 15.195312 -22.6875 14.40625 -22.75 C 13.625 -22.820312 12.671875 -22.859375 11.546875 -22.859375 L 11.546875 -2.84375 C 11.546875 -2.3125 11.570312 -1.875 11.625 -1.53125 C 11.675781 -1.1875 11.742188 -0.925781 11.828125 -0.75 C 11.921875 -0.582031 12.007812 -0.460938 12.09375 -0.390625 C 12.1875 -0.328125 12.253906 -0.296875 12.296875 -0.296875 L 12.296875 0 L 8.4375 0 L 8.4375 -0.296875 C 8.488281 -0.296875 8.554688 -0.328125 8.640625 -0.390625 C 8.734375 -0.460938 8.816406 -0.582031 8.890625 -0.75 C 8.960938 -0.925781 9.03125 -1.1875 9.09375 -1.53125 C 9.164062 -1.875 9.203125 -2.3125 9.203125 -2.84375 L 9.203125 -22.859375 C 8.078125 -22.859375 7.117188 -22.820312 6.328125 -22.75 C 5.535156 -22.6875 4.847656 -22.566406 4.265625 -22.390625 C 3.679688 -22.210938 3.160156 -21.957031 2.703125 -21.625 C 2.242188 -21.300781 1.769531 -20.875 1.28125 -20.34375 L 0.984375 -20.34375 L 0.984375 -23.15625 L 19.796875 -23.15625 Z M 19.796875 -20.34375 "/></g></g></g><g fill="#ffffff" fill-opacity="1"><g transform="translate(26.211752, 25.733586)"><g><path d="M 0.828125 -14.71875 L 3.921875 -15.890625 L 3.921875 -2.84375 C 3.921875 -2.289062 3.945312 -1.847656 4 -1.515625 C 4.0625 -1.179688 4.132812 -0.921875 4.21875 -0.734375 C 4.3125 -0.554688 4.398438 -0.4375 4.484375 -0.375 C 4.578125 -0.320312 4.644531 -0.296875 4.6875 -0.296875 L 4.6875 0 L 0.859375 0 L 0.859375 -0.296875 C 0.921875 -0.296875 0.992188 -0.320312 1.078125 -0.375 C 1.171875 -0.4375 1.253906 -0.554688 1.328125 -0.734375 C 1.410156 -0.921875 1.484375 -1.179688 1.546875 -1.515625 C 1.617188 -1.847656 1.65625 -2.289062 1.65625 -2.84375 L 1.65625 -13.03125 C 1.5625 -13.625 1.4375 -14.007812 1.28125 -14.1875 C 1.132812 -14.363281 1.015625 -14.453125 0.921875 -14.453125 Z M 2.546875 -18.5625 C 2.097656 -18.5625 1.722656 -18.707031 1.421875 -19 C 1.128906 -19.300781 0.984375 -19.675781 0.984375 -20.125 C 0.984375 -20.5625 1.128906 -20.925781 1.421875 -21.21875 C 1.722656 -21.519531 2.097656 -21.671875 2.546875 -21.671875 C 2.984375 -21.671875 3.347656 -21.519531 3.640625 -21.21875 C 3.941406 -20.925781 4.09375 -20.5625 4.09375 -20.125 C 4.09375 -19.675781 3.941406 -19.300781 3.640625 -19 C 3.347656 -18.707031 2.984375 -18.5625 2.546875 -18.5625 Z M 2.546875 -18.5625 "/></g></g></g><g fill="#ffffff" fill-opacity="1"><g transform="translate(31.158452, 25.733586)"><g><path d="M 24.25 -9.765625 L 24.25 -2.84375 C 24.25 -2.289062 24.273438 -1.847656 24.328125 -1.515625 C 24.378906 -1.179688 24.445312 -0.921875 24.53125 -0.734375 C 24.625 -0.554688 24.710938 -0.4375 24.796875 -0.375 C 24.890625 -0.320312 24.957031 -0.296875 25 -0.296875 L 25 0 L 21.171875 0 L 21.171875 -0.296875 C 21.210938 -0.296875 21.273438 -0.320312 21.359375 -0.375 C 21.453125 -0.4375 21.535156 -0.554688 21.609375 -0.734375 C 21.691406 -0.921875 21.765625 -1.179688 21.828125 -1.515625 C 21.898438 -1.847656 21.9375 -2.289062 21.9375 -2.84375 L 21.9375 -9.765625 C 21.9375 -10.160156 21.910156 -10.640625 21.859375 -11.203125 C 21.816406 -11.765625 21.722656 -12.3125 21.578125 -12.84375 C 21.441406 -13.382812 21.234375 -13.875 20.953125 -14.3125 C 20.679688 -14.75 20.316406 -15.046875 19.859375 -15.203125 C 19.390625 -15.359375 18.9375 -15.351562 18.5 -15.1875 C 18.0625 -15.019531 17.660156 -14.769531 17.296875 -14.4375 C 16.929688 -14.113281 16.601562 -13.742188 16.3125 -13.328125 C 16.03125 -12.910156 15.804688 -12.515625 15.640625 -12.140625 C 15.148438 -11.085938 14.757812 -9.796875 14.46875 -8.265625 C 14.1875 -6.734375 14.046875 -4.925781 14.046875 -2.84375 C 14.046875 -2.289062 14.070312 -1.847656 14.125 -1.515625 C 14.1875 -1.179688 14.257812 -0.921875 14.34375 -0.734375 C 14.4375 -0.554688 14.523438 -0.4375 14.609375 -0.375 C 14.703125 -0.320312 14.769531 -0.296875 14.8125 -0.296875 L 14.8125 0 L 10.984375 0 L 10.984375 -0.296875 C 11.023438 -0.296875 11.085938 -0.320312 11.171875 -0.375 C 11.265625 -0.4375 11.347656 -0.554688 11.421875 -0.734375 C 11.503906 -0.921875 11.578125 -1.179688 11.640625 -1.515625 C 11.710938 -1.847656 11.75 -2.289062 11.75 -2.84375 L 11.75 -9.765625 C 11.75 -10.160156 11.722656 -10.640625 11.671875 -11.203125 C 11.628906 -11.765625 11.535156 -12.3125 11.390625 -12.84375 C 11.253906 -13.382812 11.046875 -13.875 10.765625 -14.3125 C 10.492188 -14.75 10.128906 -15.046875 9.671875 -15.203125 C 9.203125 -15.359375 8.75 -15.351562 8.3125 -15.1875 C 7.875 -15.019531 7.472656 -14.769531 7.109375 -14.4375 C 6.742188 -14.113281 6.414062 -13.742188 6.125 -13.328125 C 5.84375 -12.910156 5.613281 -12.515625 5.4375 -12.140625 C 4.957031 -11.085938 4.570312 -9.796875 4.28125 -8.265625 C 4 -6.734375 3.859375 -4.925781 3.859375 -2.84375 C 3.859375 -2.289062 3.882812 -1.847656 3.9375 -1.515625 C 4 -1.179688 4.070312 -0.921875 4.15625 -0.734375 C 4.238281 -0.554688 4.320312 -0.4375 4.40625 -0.375 C 4.5 -0.320312 4.570312 -0.296875 4.625 -0.296875 L 4.625 0 L 0.828125 0 L 0.828125 -0.296875 C 0.867188 -0.296875 0.929688 -0.320312 1.015625 -0.375 C 1.109375 -0.4375 1.191406 -0.554688 1.265625 -0.734375 C 1.347656 -0.921875 1.421875 -1.179688 1.484375 -1.515625 C 1.546875 -1.847656 1.578125 -2.289062 1.578125 -2.84375 L 1.578125 -13.0625 C 1.578125 -13.59375 1.546875 -14.023438 1.484375 -14.359375 C 1.421875 -14.703125 1.347656 -14.960938 1.265625 -15.140625 C 1.191406 -15.316406 1.109375 -15.4375 1.015625 -15.5 C 0.929688 -15.5625 0.867188 -15.59375 0.828125 -15.59375 L 0.828125 -15.890625 L 3.859375 -15.890625 L 3.859375 -7.359375 C 4.015625 -8.367188 4.203125 -9.28125 4.421875 -10.09375 C 4.640625 -10.90625 4.890625 -11.628906 5.171875 -12.265625 C 5.398438 -12.734375 5.65625 -13.1875 5.9375 -13.625 C 6.21875 -14.0625 6.550781 -14.460938 6.9375 -14.828125 C 7.320312 -15.191406 7.738281 -15.484375 8.1875 -15.703125 C 8.644531 -15.921875 9.148438 -16.03125 9.703125 -16.03125 C 10.597656 -16.03125 11.332031 -15.84375 11.90625 -15.46875 C 12.476562 -15.09375 12.921875 -14.609375 13.234375 -14.015625 C 13.554688 -13.421875 13.769531 -12.75 13.875 -12 C 13.988281 -11.257812 14.046875 -10.515625 14.046875 -9.765625 L 14.046875 -7.359375 C 14.179688 -8.367188 14.359375 -9.28125 14.578125 -10.09375 C 14.796875 -10.90625 15.0625 -11.628906 15.375 -12.265625 C 15.570312 -12.734375 15.816406 -13.1875 16.109375 -13.625 C 16.410156 -14.0625 16.742188 -14.460938 17.109375 -14.828125 C 17.484375 -15.191406 17.898438 -15.484375 18.359375 -15.703125 C 18.828125 -15.921875 19.335938 -16.03125 19.890625 -16.03125 C 20.785156 -16.03125 21.515625 -15.84375 22.078125 -15.46875 C 22.640625 -15.09375 23.078125 -14.609375 23.390625 -14.015625 C 23.710938 -13.421875 23.9375 -12.75 24.0625 -12 C 24.1875 -11.257812 24.25 -10.515625 24.25 -9.765625 Z M 24.25 -9.765625 "/></g></g></g><g fill="#ffffff" fill-opacity="1"><g transform="translate(56.420148, 25.733586)"><g><path d="M 1.125 -5.84375 C 0.832031 -6.914062 0.765625 -7.976562 0.921875 -9.03125 C 1.078125 -10.09375 1.410156 -11.066406 1.921875 -11.953125 C 2.441406 -12.847656 3.117188 -13.625 3.953125 -14.28125 C 4.796875 -14.9375 5.753906 -15.410156 6.828125 -15.703125 C 7.972656 -16.003906 9.070312 -16.070312 10.125 -15.90625 C 11.175781 -15.75 12.128906 -15.425781 12.984375 -14.9375 C 13.847656 -14.457031 14.585938 -13.84375 15.203125 -13.09375 C 15.816406 -12.34375 16.257812 -11.53125 16.53125 -10.65625 C 15.738281 -10.65625 14.882812 -10.617188 13.96875 -10.546875 C 13.050781 -10.484375 12.222656 -10.363281 11.484375 -10.1875 C 12.097656 -10.207031 12.660156 -10.101562 13.171875 -9.875 C 13.691406 -9.644531 14.140625 -9.332031 14.515625 -8.9375 C 14.890625 -8.539062 15.1875 -8.078125 15.40625 -7.546875 C 15.625 -7.023438 15.753906 -6.476562 15.796875 -5.90625 C 15.890625 -4.71875 15.644531 -3.6875 15.0625 -2.8125 C 14.476562 -1.945312 13.707031 -1.265625 12.75 -0.765625 C 11.789062 -0.273438 10.71875 0.00390625 9.53125 0.078125 C 8.34375 0.160156 7.191406 0.00390625 6.078125 -0.390625 C 4.972656 -0.785156 3.96875 -1.425781 3.0625 -2.3125 C 2.164062 -3.207031 1.519531 -4.382812 1.125 -5.84375 Z M 3.0625 -8.21875 C 3.132812 -7.570312 3.234375 -6.976562 3.359375 -6.4375 C 3.773438 -4.851562 4.410156 -3.609375 5.265625 -2.703125 C 6.128906 -1.804688 7.0625 -1.191406 8.0625 -0.859375 C 9.0625 -0.523438 10.066406 -0.453125 11.078125 -0.640625 C 12.085938 -0.828125 12.96875 -1.207031 13.71875 -1.78125 C 14.46875 -2.351562 15.007812 -3.082031 15.34375 -3.96875 C 15.6875 -4.863281 15.695312 -5.859375 15.375 -6.953125 C 15.195312 -7.546875 14.910156 -8.082031 14.515625 -8.5625 C 14.117188 -9.050781 13.632812 -9.410156 13.0625 -9.640625 C 12.488281 -9.878906 11.835938 -9.96875 11.109375 -9.90625 C 10.390625 -9.851562 9.625 -9.585938 8.8125 -9.109375 C 8.019531 -8.640625 7.242188 -8.3125 6.484375 -8.125 C 5.722656 -7.9375 5.023438 -7.867188 4.390625 -7.921875 C 4.148438 -7.941406 3.914062 -7.96875 3.6875 -8 C 3.46875 -8.03125 3.257812 -8.101562 3.0625 -8.21875 Z M 13.984375 -10.8125 C 13.679688 -11.519531 13.285156 -12.195312 12.796875 -12.84375 C 12.316406 -13.5 11.773438 -14.054688 11.171875 -14.515625 C 10.566406 -14.972656 9.898438 -15.300781 9.171875 -15.5 C 8.441406 -15.695312 7.679688 -15.6875 6.890625 -15.46875 C 6.140625 -15.269531 5.507812 -14.925781 5 -14.4375 C 4.5 -13.957031 4.097656 -13.398438 3.796875 -12.765625 C 3.503906 -12.128906 3.296875 -11.4375 3.171875 -10.6875 C 3.054688 -9.9375 3.019531 -9.203125 3.0625 -8.484375 C 3.4375 -8.304688 3.878906 -8.191406 4.390625 -8.140625 C 5.003906 -8.097656 5.675781 -8.171875 6.40625 -8.359375 C 7.144531 -8.546875 7.898438 -8.859375 8.671875 -9.296875 C 9.597656 -9.828125 10.519531 -10.203125 11.4375 -10.421875 C 12.363281 -10.640625 13.210938 -10.769531 13.984375 -10.8125 Z M 13.984375 -10.8125 "/></g></g></g></svg>